<?xml version="1.0" encoding="UTF-8"?>
<svg id="Capa_1" data-name="Capa 1" xmlns="http://www.w3.org/2000/svg" xmlns:xlink="http://www.w3.org/1999/xlink" viewBox="0 0 296.86 100">
  <defs>
    <style>
      .cls-1 {
        fill: #3e156f;
      }

      .cls-2 {
        fill: #fff;
      }

      .cls-3 {
        fill: url(#Degradado_sin_nombre_256);
      }
    </style>
    <linearGradient id="Degradado_sin_nombre_256" data-name="Degradado sin nombre 256" x1="129.89" y1="69.34" x2="277.38" y2="26.58" gradientTransform="translate(401.95 97.51) rotate(-180)" gradientUnits="userSpaceOnUse">
      <stop offset=".44" stop-color="#b15ecf"/>
      <stop offset=".6" stop-color="#b569d2"/>
      <stop offset="1" stop-color="#c081db"/>
    </linearGradient>
  </defs>
  <path class="cls-3" d="M131.45,19.32h139.05c3.64,0,6.59,1.76,6.59,3.92v18.7c0,.87-4.22,5.76-4.22,5.76,0,0,4.22,5.38,4.22,6.02v20.55c0,.26-.04,1.65-1.93,2.77-1.19.71-2.84,1.15-4.66,1.15h-139.05c-3.64,0-6.59-1.76-6.59-3.92v-20.35c0-.26,4.52-5.61,4.51-5.73s-2.19-2.68-4.18-5.85c0,0-.4-14.38-.32-19.09,0,0,.12-1.76,1.69-2.7,1.72-1.02,4.91-1.23,4.91-1.23Z"/>
  <g>
    <path class="cls-2" d="M35.78,69.58c-17.65,0-20.28-12.63-20.28-20.17s2.64-20.17,20.28-20.17c5.09,0,9.17,1.03,12.46,3.16l-4.44,5.72c-2.58-1.89-5.02-2.28-8.07-2.28-3.74,0-6.48.97-8.38,2.97-2.39,2.51-3.36,6.58-3.04,12.79.32,6.38,5.62,11.38,12.07,11.38.15,0,.3,0,.45,0,1.82-.07,3.24-.31,4.9-.83.51-.16.85-.62.85-1.16v-6.58c0-.67-.54-1.21-1.21-1.21h-6.72v-6.65h16.49v18.16c-3.57,3.06-9.29,4.88-15.34,4.88Z"/>
    <path class="cls-2" d="M73.87,69.58c-7.31,0-16.03-2.49-16.03-14.37,0-9.81,5.41-15.22,15.23-15.22s14.77,5.35,14.77,15.06c0,.75-.03,1.45-.07,2.13h-19.83c-.39,0-.75.19-.98.5-.23.31-.29.71-.17,1.08,1.05,3.25,3.45,4.76,7.56,4.76,3.89,0,6.75-.64,10.09-2.28l2.54,5.17c-3.57,2.16-7.74,3.16-13.1,3.16ZM72.89,46.06c-3.09,0-5.05,1.21-5.97,3.7-.14.36-.08.77.14,1.1.23.33.6.52,1,.52h9.6c.4,0,.77-.19,1-.52.22-.32.28-.73.15-1.1-.93-2.53-2.81-3.71-5.92-3.71Z"/>
    <path class="cls-2" d="M106.62,69.63c-6.09-.14-8.57-2.44-8.57-7.93v-14.12c0-.67-.54-1.21-1.21-1.21h-4.36v-6.28h4.36c.67,0,1.21-.54,1.21-1.21v-5.66h8.57v5.66c0,.67.54,1.21,1.21,1.21h6.32v6.28h-6.32c-.67,0-1.21.54-1.21,1.21v12.89c0,1.47.33,2.82,2.7,2.82,1.07,0,3.17,0,5.28-.26l.69,5.71c-2.44.66-7.14.88-8.65.88Z"/>
  </g>
  <path class="cls-1" d="M157.62,30.89h-16.12c-.49,0-.89.4-.89.89v35.32c0,.49.4.89.89.89h7.53c.49,0,.89-.4.89-.89v-10.41c0-.49.4-.89.89-.89h6.81c8.79,0,13.36-4.53,13.36-12.48s-4.58-12.43-13.36-12.43ZM156.68,48.33h-5.87c-.49,0-.89-.4-.89-.89v-8.15c0-.49.4-.89.89-.89h5.87c3.54,0,5.1,1.64,5.1,4.96s-1.56,4.96-5.1,4.96Z"/>
  <path class="cls-1" d="M187.94,39.73c-5.8,0-10.43,1.5-13.18,3.22-.34.21-.45.67-.26,1.03l2.55,4.76c.21.4.71.52,1.1.3,2.77-1.57,6.05-2.22,9.07-2.22,1.69,0,2.99-.16,3.15,1.39.06.6-.04,1.17-.64,1.2-10.07.47-16.91,4.31-16.91,10.13,0,4.62,3.07,8.48,9.62,8.48,2.22,0,6.3-.64,8.58-1.91.36-.2.82-.09,1.04.27l.44.7c.14.23.39.37.66.37h4.39c1.3,0,2.36-1.05,2.36-2.36v-13.97c0-5.64-2.29-11.37-11.96-11.37ZM190.7,58.08c0,.34-.05.63-.16.87-.68,1.35-3.85,1.98-6.14,1.98-1.4,0-2.23-.43-2.23-1.98,0-2.5,3.22-3.32,7.8-3.47.36,0,.57,0,.73.05v2.55Z"/>
  <path class="cls-1" d="M221.45,50.79c-3.33-.92-5.73-1.47-5.73-2.86,0-.92.43-1.33,3.55-1.33,2.86,0,5.58.97,7.98,1.91.36.14.77-.03.91-.4l2.15-5.38c.14-.35-.01-.75-.35-.9-2.76-1.24-7.08-2.07-11-2.07-9.15,0-12.89,2.65-12.89,8.04,0,4.29,4,6.89,10.4,8.81,3.33,1.01,4.98,1.27,4.98,2.62s-.77,1.86-4.15,1.86c-2.73,0-5.23-.34-8.62-2.09-.37-.19-.82-.04-.99.34l-2.26,5.27c-.14.33-.02.71.28.89,2.89,1.66,6.92,2.47,11.27,2.47,9.15,0,14.87-2.31,14.87-8.48,0-5.35-4.58-7.03-10.4-8.72Z"/>
  <path class="cls-1" d="M250.88,51.1c-3.33-.92-6.13-1.59-6.13-2.99,0-.92,1.22-1.62,4.33-1.4,1.59.11,2.76.32,4.18.72.24.07.27.47.21.72l-.21.89c-.08.34.23.64.56.56l6.88-2.47c.57-.14.57-.97.24-1.46l-3.64-6.02c-.2-.3-.64-.27-.81.05l-.48.95c-.1.19-.29.37-.5.32-2.23-.52-4.76-.91-7.14-.91-9.15,0-12.89,2.65-12.89,8.04,0,4.29,4,6.89,10.4,8.81,3.33,1.01,5.35,1.39,5.35,2.74s-1.14,1.74-4.52,1.74c-2.62,0-5.02-.31-8.2-1.88-.6-.3-1.34-.03-1.6.59l-1.9,4.43c-.24.57,0,1.23.54,1.52,2.85,1.5,6.7,2.24,10.85,2.24,9.15,0,14.87-2.31,14.87-8.48,0-5.35-4.58-7.03-10.4-8.72Z"/>
</svg>
