<?xml version="1.0" encoding="UTF-8"?>
<svg id="Capa_1" data-name="Capa 1" xmlns="http://www.w3.org/2000/svg" xmlns:xlink="http://www.w3.org/1999/xlink" viewBox="0 0 16 16">
  <defs>
    <style>
      .cls-1 {
        fill: #3e156f;
      }

      .cls-2 {
        fill: url(#Degradado_sin_nombre_256);
      }
    </style>
    <linearGradient id="Degradado_sin_nombre_256" data-name="Degradado sin nombre 256" x1="-426.38" y1="83.99" x2="-413.03" y2="80.12" gradientTransform="translate(-411.94 90.38) rotate(-180)" gradientUnits="userSpaceOnUse">
      <stop offset=".44" stop-color="#b15ecf"/>
      <stop offset=".6" stop-color="#b569d2"/>
      <stop offset="1" stop-color="#c081db"/>
    </linearGradient>
  </defs>
  <path class="cls-2" d="M2.17,3.65h11.66c.31,0,.55.27.55.61v2.92c0,.14-.72.96-.72.96,0,0,.72.78.72.88v3.21s0,.26-.16.43c-.1.11-.24.18-.39.18H2.17c-.31,0-.55-.27-.55-.61v-3.18s.92-.84.92-.86-.72-.45-.89-.95c0,0-.03-2.25-.03-2.99,0,0,0-.28.14-.42.14-.16.41-.19.41-.19Z"/>
  <path class="cls-1" d="M13.29,12.83c.49-1.15.43-2.15-.45-3.04-1.35-1.37-2.95-.64-4.86.4-1.08.61-1.97,1.15-2.32.79-.23-.23-.1-.72.75-1.45.44-.37.79-.62,1.25-.87.08-.04.19.05.23.13l.17.28c.07.11.22.11.29,0l1.13-2.37c.11-.18-.1-.39-.31-.43l-2.45-.62c-.13-.03-.23.09-.19.22l.12.37c.02.07.02.17-.05.21-.7.43-1.38.96-1.98,1.56-2.01,1.99-2.85,3.33-1.94,4.69.06.05.09.06.13.09.04.03.03,0,.07.04.05.01.09.02.26.03.08,0,.16-.01.21,0,1.85-.02,3.31-.03,5.08,0,1.02-.55,1.48-.87,1.81-.54.18.18.22.29.11.54,1,0,1.95.04,2.95,0Z"/>
</svg>