<?xml version="1.0" encoding="UTF-8"?>
<svg id="Capa_1" data-name="Capa 1" xmlns="http://www.w3.org/2000/svg" viewBox="0 0 100 100">
  <defs>
    <style>
      .cls-1 {
        fill: #f2f2f2;
      }

      .cls-2 {
        fill: #222;
      }
    </style>
  </defs>
  <path class="cls-2" d="M16.64,23.73h66.79c1.75,0,3.17,1.57,3.17,3.52v16.75c0,.78-4.1,5.49-4.1,5.49,0,0,4.1,4.49,4.1,5.06,0,6.75,0,11.66,0,18.41,0,.23-.02,1.48-.93,2.49-.57.64-1.36,1.03-2.24,1.03H16.64c-1.75,0-3.17-1.57-3.17-3.52v-18.24c0-.23,5.27-4.84,5.26-4.95s-4.15-2.58-5.1-5.43c0,0-.19-12.89-.16-17.1,0,0,.06-1.58.81-2.42.83-.92,2.36-1.1,2.36-1.1Z"/>
  <path class="cls-1" d="M80.32,76.34c2.82-6.57,2.44-12.32-2.59-17.41-7.75-7.83-16.88-3.66-27.85,2.3-6.2,3.48-11.28,6.56-13.31,4.52-1.33-1.34-.56-4.13,4.31-8.32,2.5-2.15,4.5-3.53,7.17-5,.45-.25,1.08.3,1.35.74l.98,1.6c.37.61,1.26.62,1.64,0l6.49-13.58c.64-1.03-.57-2.24-1.76-2.49l-14.04-3.55c-.72-.15-1.34.53-1.11,1.24l.66,2.09c.13.42.11.96-.26,1.19-4.01,2.48-7.9,5.5-11.37,8.93-11.5,11.38-16.32,19.08-11.13,26.87.33.29.5.35.75.52.22.15.17.06.38.2.29.08.52.12,1.49.15.43-.02.91-.06,1.21,0,10.62-.11,18.98-.16,29.12,0,5.87-3.13,8.48-5,10.36-3.11,1.01,1.02,1.28,1.67.62,3.07,5.73.03,11.16.21,16.89,0Z"/>
</svg>