<?xml version="1.0" encoding="UTF-8"?>
<svg id="Capa_1" data-name="Capa 1" xmlns="http://www.w3.org/2000/svg" xmlns:xlink="http://www.w3.org/1999/xlink" viewBox="0 0 100 100">
  <defs>
    <style>
      .cls-1 {
        fill: #3e156f;
      }

      .cls-2 {
        fill: #222;
      }

      .cls-3 {
        fill: url(#Degradado_sin_nombre_256);
      }
    </style>
    <linearGradient id="Degradado_sin_nombre_256" data-name="Degradado sin nombre 256" x1="-290.01" y1="41.91" x2="-213.08" y2="19.6" gradientTransform="translate(-202.92 93.62) rotate(-180)" gradientUnits="userSpaceOnUse">
      <stop offset=".44" stop-color="#b15ecf"/>
      <stop offset=".6" stop-color="#b569d2"/>
      <stop offset="1" stop-color="#c081db"/>
    </linearGradient>
  </defs>
  <g>
    <path class="cls-2" d="M20.71,41.67c-8.35,0-9.59-5.98-9.59-9.54s1.25-9.54,9.59-9.54c2.4,0,4.33.49,5.88,1.48l-2.08,2.68c-1.23-.89-2.38-1.08-3.82-1.08-1.78,0-3.08.46-3.99,1.41-1.14,1.2-1.6,3.13-1.45,6.08.15,3.03,2.67,5.41,5.74,5.41h.21c.86-.04,1.54-.15,2.33-.4.25-.08.42-.31.42-.57v-3.12c0-.33-.27-.59-.59-.59h-3.16v-3.11h7.78v8.58c-1.69,1.44-4.39,2.3-7.25,2.3Z"/>
    <path class="cls-2" d="M38.77,41.67c-3.46,0-7.58-1.18-7.58-6.79,0-4.64,2.56-7.19,7.2-7.19s6.98,2.53,6.98,7.12c0,.34-.01.66-.03.99h-9.38c-.19,0-.37.09-.48.25-.11.15-.14.35-.08.53.5,1.55,1.64,2.27,3.6,2.27,1.84,0,3.2-.3,4.77-1.07l1.19,2.42c-1.68,1.01-3.65,1.49-6.18,1.49ZM38.31,30.52c-1.48,0-2.41.58-2.85,1.77-.07.18-.04.38.07.54.11.16.3.26.49.26h4.55c.2,0,.38-.1.49-.26.11-.16.14-.36.07-.54-.44-1.21-1.34-1.77-2.82-1.77Z"/>
    <path class="cls-2" d="M54.3,41.7c-2.87-.07-4.04-1.15-4.04-3.74v-6.69c0-.33-.27-.59-.59-.59h-2.05v-2.93h2.05c.33,0,.59-.27.59-.59v-2.66h4.02v2.66c0,.33.27.59.59.59h2.97v2.93h-2.97c-.33,0-.59.27-.59.59v6.11c0,.71.16,1.36,1.3,1.36.51,0,1.49,0,2.48-.12l.32,2.67c-1.16.31-3.37.41-4.08.41Z"/>
  </g>
  <path class="cls-3" d="M13.75,47.1h72.54c1.9,0,3.44.92,3.44,2.05v9.75c0,.45-2.2,3-2.2,3,0,0,2.2,2.81,2.2,3.14v10.72c0,.14-.02.86-1.01,1.45-.62.37-1.48.6-2.43.6H13.75c-1.9,0-3.44-.92-3.44-2.05v-10.62c0-.13,2.36-2.92,2.35-2.99s-1.14-1.4-2.18-3.05c0,0-.21-7.5-.17-9.96,0,0,.06-.92.88-1.41.9-.53,2.56-.64,2.56-.64Z"/>
  <path class="cls-1" d="M27.4,53.13h-8.41c-.26,0-.46.21-.46.46v18.42c0,.26.21.46.46.46h3.93c.26,0,.46-.21.46-.46v-5.43c0-.26.21-.46.46-.46h3.55c4.58,0,6.97-2.36,6.97-6.51s-2.39-6.48-6.97-6.48ZM26.91,62.23h-3.06c-.26,0-.46-.21-.46-.46v-4.25c0-.26.21-.46.46-.46h3.06c1.84,0,2.66.85,2.66,2.59s-.81,2.59-2.66,2.59Z"/>
  <path class="cls-1" d="M43.22,57.74c-3.02,0-5.44.78-6.88,1.68-.18.11-.23.35-.13.53l1.33,2.48c.11.21.37.27.57.16,1.45-.82,3.16-1.16,4.73-1.16.88,0,1.56-.08,1.64.72.03.31-.02.61-.34.63-5.25.25-8.82,2.25-8.82,5.28,0,2.41,1.6,4.42,5.02,4.42,1.16,0,3.29-.33,4.48-1,.19-.11.43-.04.54.14l.23.37c.08.12.21.19.35.19h2.29c.68,0,1.23-.55,1.23-1.23v-7.29c0-2.94-1.19-5.93-6.24-5.93ZM44.66,67.32c0,.18-.03.33-.08.45-.35.7-2.01,1.03-3.2,1.03-.73,0-1.17-.23-1.17-1.03,0-1.31,1.68-1.73,4.07-1.81.19,0,.3,0,.38.02v1.33Z"/>
  <path class="cls-1" d="M60.7,63.51c-1.74-.48-2.99-.77-2.99-1.49,0-.48.22-.69,1.85-.69,1.49,0,2.91.51,4.16,1,.19.07.4-.02.48-.21l1.12-2.81c.07-.18,0-.39-.18-.47-1.44-.65-3.69-1.08-5.74-1.08-4.77,0-6.73,1.38-6.73,4.2,0,2.24,2.09,3.59,5.42,4.6,1.74.53,2.6.66,2.6,1.37s-.4.97-2.16.97c-1.42,0-2.73-.18-4.5-1.09-.19-.1-.43-.02-.51.18l-1.18,2.75c-.07.17-.01.37.15.46,1.51.87,3.61,1.29,5.88,1.29,4.77,0,7.76-1.21,7.76-4.42,0-2.79-2.39-3.67-5.42-4.55Z"/>
  <path class="cls-1" d="M76.05,63.67c-1.74-.48-3.2-.83-3.2-1.56,0-.48.64-.84,2.26-.73.83.06,1.44.17,2.18.38.13.04.14.25.11.37l-.11.46c-.04.18.12.34.29.29l3.59-1.29c.3-.07.3-.51.13-.76l-1.9-3.14c-.1-.16-.34-.14-.42.02l-.25.49c-.05.1-.15.19-.26.17-1.16-.27-2.49-.47-3.72-.47-4.77,0-6.73,1.38-6.73,4.2,0,2.24,2.09,3.59,5.42,4.6,1.74.53,2.79.73,2.79,1.43s-.59.91-2.36.91c-1.37,0-2.62-.16-4.28-.98-.31-.16-.7-.02-.84.31l-.99,2.31c-.13.3,0,.64.28.79,1.49.78,3.5,1.17,5.66,1.17,4.77,0,7.76-1.21,7.76-4.42,0-2.79-2.39-3.67-5.42-4.55Z"/>
</svg>